<?xml version="1.0" standalone="no"?>
<!DOCTYPE svg PUBLIC "-//W3C//DTD SVG 20010904//EN"
 "http://www.w3.org/TR/2001/REC-SVG-20010904/DTD/svg10.dtd">
<svg version="1.0" xmlns="http://www.w3.org/2000/svg"
 width="93.000000pt" height="93.000000pt" viewBox="0 0 93.000000 93.000000"
 preserveAspectRatio="xMidYMid meet">

<g transform="translate(0.000000,93.000000) scale(0.100000,-0.100000)"
fill="#000000" stroke="none">
<path d="M410 855 l0 -55 50 0 50 0 0 55 0 55 -50 0 -50 0 0 -55z"/>
<path d="M273 865 c-129 -64 -210 -176 -234 -322 -10 -61 -9 -82 6 -145 24
-106 24 -105 36 -88 8 11 9 10 4 -8 -13 -44 86 -157 180 -207 l50 -26 3 53 c3
45 0 55 -18 68 -53 37 -109 94 -125 126 -9 20 -19 33 -22 31 -2 -3 1 -16 7
-29 l11 -23 -18 21 c-10 12 -28 21 -41 19 -17 -1 -21 2 -17 14 3 11 0 9 -11
-4 -16 -19 -16 -19 -10 10 5 22 4 26 -4 15 -8 -12 -10 -10 -10 12 0 14 -3 35
-6 45 -3 10 3 6 12 -9 20 -30 34 -36 34 -15 0 8 4 7 10 -3 9 -13 10 -13 10 0
0 10 3 11 8 4 4 -7 7 25 7 70 0 68 4 90 27 136 33 67 94 131 148 155 l40 18 0
59 c0 32 -2 58 -4 58 -2 0 -35 -16 -73 -35z"/>
<path d="M570 842 l0 -59 40 -18 c54 -24 115 -88 148 -154 22 -46 26 -69 27
-137 0 -45 3 -77 7 -70 5 7 8 6 8 -4 0 -13 1 -13 10 0 9 13 10 13 10 0 1 -12
3 -12 14 3 19 24 26 21 26 -10 0 -14 -3 -23 -7 -19 -4 4 -15 -8 -25 -26 -9
-18 -17 -26 -18 -18 0 12 -2 12 -9 1 -7 -10 -13 -11 -31 -1 -22 12 -22 11 -16
-16 4 -18 3 -24 -2 -16 -12 17 -36 -19 -47 -68 -9 -44 -31 -88 -58 -118 -27
-29 -7 -28 42 2 57 36 118 104 146 163 28 57 33 87 10 57 -8 -11 -14 -14 -15
-6 0 7 9 20 20 29 31 27 45 108 31 189 -28 160 -121 275 -273 339 l-38 15 0
-58z"/>
<path d="M410 580 l0 -160 26 -10 c33 -13 34 -13 34 4 0 8 -6 16 -12 19 -7 2
-1 4 14 3 21 -1 24 -4 15 -15 -10 -11 -9 -13 3 -9 12 4 15 33 18 166 l2 162
-50 0 -50 0 0 -160z"/>
<path d="M334 652 c-136 -99 -104 -321 55 -377 55 -19 87 -19 141 0 l43 15 -6
-37 c-4 -22 -18 -49 -36 -66 -31 -32 -70 -38 -143 -23 l-38 7 0 -55 c0 -51 2
-56 25 -62 14 -3 57 -4 95 -2 87 5 141 39 179 113 25 47 26 57 25 206 -1 141
-3 161 -24 204 -13 27 -40 59 -64 77 l-41 30 -3 -58 c-2 -39 2 -71 14 -95 23
-53 12 -102 -30 -134 -57 -43 -129 -27 -162 36 -18 36 -18 63 1 100 11 20 15
50 13 90 l-3 61 -41 -30z"/>
<path d="M121 364 c0 -11 3 -14 6 -6 3 7 2 16 -1 19 -3 4 -6 -2 -5 -13z"/>
<path d="M791 364 c0 -11 3 -14 6 -6 3 7 2 16 -1 19 -3 4 -6 -2 -5 -13z"/>
<path d="M770 356 c0 -8 4 -17 9 -20 5 -4 7 3 4 14 -6 23 -13 26 -13 6z"/>
<path d="M410 214 c0 -15 8 -24 24 -28 33 -8 76 9 76 31 0 15 -9 18 -50 18
-44 0 -50 -2 -50 -21z"/>
</g>
</svg>
